<?xml version="1.0" encoding="UTF-8" standalone="no"?>
<!-- Created with Inkscape (http://www.inkscape.org/) -->

<svg
   xmlns:dc="http://purl.org/dc/elements/1.1/"
   xmlns:cc="http://creativecommons.org/ns#"
   xmlns:rdf="http://www.w3.org/1999/02/22-rdf-syntax-ns#"
   xmlns:svg="http://www.w3.org/2000/svg"
   xmlns="http://www.w3.org/2000/svg"
   xmlns:sodipodi="http://sodipodi.sourceforge.net/DTD/sodipodi-0.dtd"
   xmlns:inkscape="http://www.inkscape.org/namespaces/inkscape"
   width="210mm"
   height="297mm"
   viewBox="0 0 210 297"
   version="1.1"
   id="svg605"
   inkscape:version="0.92.4 (5da689c313, 2019-01-14)"
   sodipodi:docname="200225-PocasIkonySada-Chlad.svg">
  <defs
     id="defs599" />
  <sodipodi:namedview
     id="base"
     pagecolor="#ffffff"
     bordercolor="#666666"
     borderopacity="1.0"
     inkscape:pageopacity="0.0"
     inkscape:pageshadow="2"
     inkscape:zoom="0.35"
     inkscape:cx="-114.28571"
     inkscape:cy="560"
     inkscape:document-units="mm"
     inkscape:current-layer="layer1"
     showgrid="false"
     inkscape:window-width="1371"
     inkscape:window-height="692"
     inkscape:window-x="1671"
     inkscape:window-y="-9"
     inkscape:window-maximized="1" />
  <metadata
     id="metadata602">
    <rdf:RDF>
      <cc:Work
         rdf:about="">
        <dc:format>image/svg+xml</dc:format>
        <dc:type
           rdf:resource="http://purl.org/dc/dcmitype/StillImage" />
        <dc:title></dc:title>
      </cc:Work>
    </rdf:RDF>
  </metadata>
  <g
     inkscape:label="Vrstva 1"
     inkscape:groupmode="layer"
     id="layer1">
    <g
       transform="matrix(14.237289,0,0,14.237289,-199.14366,-825.45134)"
       id="g5129">
      <rect
         ry="9.1319818"
         y="14.63835"
         x="9.9056654"
         height="55.751484"
         width="55.751484"
         id="rect5125"
         style="opacity:1;fill:#72c4d8;fill-opacity:1;stroke:none;stroke-width:7.55199957;stroke-linejoin:miter;stroke-miterlimit:4;stroke-dasharray:none;stroke-opacity:1" />
      <path
         inkscape:connector-curvature="0"
         id="path5127"
         d="m 19.037597,14.638383 c -5.059118,0 -9.1317419,4.072624 -9.1317419,9.131742 v 6.758243 A 41.955357,41.955357 0 0 0 51.026858,64.355763 41.955357,41.955357 0 0 0 65.646122,61.698042 c 0.0069,-0.145937 0.01085,-0.29259 0.01085,-0.440283 V 23.770125 c 0,-5.059118 -4.072622,-9.131742 -9.131741,-9.131742 z"
         style="opacity:1;fill:#87cdde;fill-opacity:1;stroke:none;stroke-width:7.55199909;stroke-linejoin:miter;stroke-miterlimit:4;stroke-dasharray:none;stroke-opacity:1" />
    </g>
    <g
       transform="matrix(14.237289,0,0,14.237289,-221.74536,-3545.1897)"
       id="g5139">
      <path
         style="opacity:1;fill:#ffffff;fill-opacity:1;stroke:none;stroke-width:3.50572014;stroke-miterlimit:4;stroke-dasharray:none;stroke-opacity:1"
         d="m 35.450033,212.18186 v 28.7724 a 7.5075282,7.5075282 0 0 0 -3.625619,6.41718 7.5075282,7.5075282 0 0 0 7.507552,7.50755 7.5075282,7.5075282 0 0 0 7.507552,-7.50755 7.5075282,7.5075282 0 0 0 -3.604432,-6.40219 v -28.78739 z"
         id="path5131"
         inkscape:connector-curvature="0" />
      <path
         style="opacity:1;fill:#ff2a2a;fill-opacity:1;stroke:none;stroke-width:13.24996567;stroke-miterlimit:4;stroke-dasharray:none;stroke-opacity:1"
         d="m 133.98438,835.29297 v 75.40039 c -8.49506,5.13179 -13.69144,14.32914 -13.70313,24.25391 -5e-5,15.6711 12.7039,28.37505 28.375,28.375 15.6711,5e-5 28.37505,-12.7039 28.375,-28.375 -0.0145,-9.88853 -5.17593,-19.05632 -13.62305,-24.19727 v -75.45703 z"
         transform="scale(0.26458333)"
         id="path5133"
         inkscape:connector-curvature="0"
         sodipodi:nodetypes="cccccccc" />
      <path
         style="color:#000000;font-style:normal;font-variant:normal;font-weight:normal;font-stretch:normal;font-size:medium;line-height:normal;font-family:sans-serif;font-variant-ligatures:normal;font-variant-position:normal;font-variant-caps:normal;font-variant-numeric:normal;font-variant-alternates:normal;font-feature-settings:normal;text-indent:0;text-align:start;text-decoration:none;text-decoration-line:none;text-decoration-style:solid;text-decoration-color:#000000;letter-spacing:normal;word-spacing:normal;text-transform:none;writing-mode:lr-tb;direction:ltr;text-orientation:mixed;dominant-baseline:auto;baseline-shift:baseline;text-anchor:start;white-space:normal;shape-padding:0;clip-rule:nonzero;display:inline;overflow:visible;visibility:visible;opacity:1;isolation:auto;mix-blend-mode:normal;color-interpolation:sRGB;color-interpolation-filters:linearRGB;solid-color:#000000;solid-opacity:1;vector-effect:none;fill:#c4c4c4;fill-opacity:1;fill-rule:nonzero;stroke:none;stroke-width:2.20600009;stroke-linecap:butt;stroke-linejoin:miter;stroke-miterlimit:4;stroke-dasharray:none;stroke-dashoffset:0;stroke-opacity:1;color-rendering:auto;image-rendering:auto;shape-rendering:auto;text-rendering:auto;enable-background:accumulate"
         d="m 34.347656,211.07812 v 1.10352 28.25195 c -2.235051,1.60666 -3.623678,4.15778 -3.626953,6.9375 -1.4e-5,4.74242 3.868909,8.61135 8.611328,8.61133 4.742419,2e-5 8.611342,-3.86891 8.611328,-8.61133 v -0.002 c -0.0041,-2.76932 -1.38363,-5.31032 -3.605468,-6.91797 v -29.37305 z m 2.205078,2.20704 h 5.580078 v 28.30468 l 0.529297,0.32227 c 1.90795,1.16119 3.070949,3.22742 3.074219,5.46094 -0.0011,3.54927 -2.85476,6.40235 -6.404297,6.40234 -3.549536,1e-5 -6.403235,-2.85307 -6.404297,-6.40234 0.0026,-2.24173 1.173002,-4.31549 3.091797,-5.47461 l 0.533203,-0.32227 z"
         id="path5135"
         inkscape:connector-curvature="0" />
      <path
         style="color:#000000;font-style:normal;font-variant:normal;font-weight:normal;font-stretch:normal;font-size:medium;line-height:normal;font-family:sans-serif;font-variant-ligatures:normal;font-variant-position:normal;font-variant-caps:normal;font-variant-numeric:normal;font-variant-alternates:normal;font-feature-settings:normal;text-indent:0;text-align:start;text-decoration:none;text-decoration-line:none;text-decoration-style:solid;text-decoration-color:#000000;letter-spacing:normal;word-spacing:normal;text-transform:none;writing-mode:lr-tb;direction:ltr;text-orientation:mixed;dominant-baseline:auto;baseline-shift:baseline;text-anchor:start;white-space:normal;shape-padding:0;clip-rule:nonzero;display:inline;overflow:visible;visibility:visible;opacity:1;isolation:auto;mix-blend-mode:normal;color-interpolation:sRGB;color-interpolation-filters:linearRGB;solid-color:#000000;solid-opacity:1;vector-effect:none;fill:#a7a7a7;fill-opacity:1;fill-rule:nonzero;stroke:none;stroke-width:8.3376379;stroke-linecap:butt;stroke-linejoin:miter;stroke-miterlimit:4;stroke-dasharray:none;stroke-dashoffset:0;stroke-opacity:1;color-rendering:auto;image-rendering:auto;shape-rendering:auto;text-rendering:auto;enable-background:accumulate"
         d="m 129.81836,797.77539 v 4.17188 106.77734 c -8.44744,6.07242 -13.69661,15.71467 -13.70898,26.2207 -6e-5,17.92411 14.62277,32.54695 32.54687,32.54688 4.98595,2e-5 9.71383,-1.13468 13.94408,-3.1553 l -4.57689,-7.05173 c -2.87818,1.20106 -6.04161,1.86524 -9.36719,1.86523 -13.41557,4e-5 -24.20106,-10.7827 -24.20508,-24.19727 0.01,-8.47268 4.43341,-16.31048 11.68555,-20.6914 l 2.01562,-1.21875 V 806.11719 Z"
         transform="scale(0.26458333)"
         id="path5137"
         inkscape:connector-curvature="0"
         sodipodi:nodetypes="ccccccccccccc" />
    </g>
    <path
       style="opacity:1;fill:#ffffff;fill-opacity:1;stroke:none;stroke-width:49.91195297;stroke-miterlimit:4;stroke-dasharray:none;stroke-opacity:1"
       d="m 282.96706,-524.29523 v 409.64098 a 106.88685,106.88685 0 0 0 -51.61899,91.363246 106.88685,106.88685 0 0 0 106.88718,106.88716 106.88685,106.88685 0 0 0 106.88719,-106.88716 106.88685,106.88685 0 0 0 -51.31735,-91.149826 v -409.8544 z"
       id="path5141"
       inkscape:connector-curvature="0" />
    <path
       style="opacity:1;fill:#2a7fff;fill-opacity:1;stroke:none;stroke-width:49.91195297;stroke-miterlimit:4;stroke-dasharray:none;stroke-opacity:1"
       d="m 282.96706,-180.20031 v 65.54649 c -32.00046,19.331102 -51.57495,53.977118 -51.61899,91.363243 -2e-4,59.032214 47.85495,106.887303 106.88718,106.88716 59.03224,1.43e-4 106.88746,-47.854946 106.88719,-106.88716 -0.0569,-37.249589 -19.49743,-71.78427 -51.31735,-91.149973 v -65.75976 z"
       id="path5143"
       inkscape:connector-curvature="0"
       sodipodi:nodetypes="cccccccc" />
    <path
       sodipodi:nodetypes="cccccccccc"
       inkscape:connector-curvature="0"
       id="path5145"
       d="m 282.96706,-180.20031 9.78171,78.03302 c 9.12427,-4.98206 8.72908,-4.88866 20.86152,-12.21773 v -65.81529 z m -10.54727,92.664392 c -29.51168,19.748829 -41.02965,28.519142 -41.07173,64.245341 -1.9e-4,59.032072 47.85496,106.887303 106.88719,106.88716 37.81523,0 71.02345,-19.653296 90.02426,-49.28679 C 296.21874,98.836747 238.13527,-21.959248 272.41979,-87.535918 Z"
       style="opacity:1;fill:#0057d9;fill-opacity:1;stroke:none;stroke-width:49.91195297;stroke-miterlimit:4;stroke-dasharray:none;stroke-opacity:1" />
    <path
       style="color:#000000;font-style:normal;font-variant:normal;font-weight:normal;font-stretch:normal;font-size:medium;line-height:normal;font-family:sans-serif;font-variant-ligatures:normal;font-variant-position:normal;font-variant-caps:normal;font-variant-numeric:normal;font-variant-alternates:normal;font-feature-settings:normal;text-indent:0;text-align:start;text-decoration:none;text-decoration-line:none;text-decoration-style:solid;text-decoration-color:#000000;letter-spacing:normal;word-spacing:normal;text-transform:none;writing-mode:lr-tb;direction:ltr;text-orientation:mixed;dominant-baseline:auto;baseline-shift:baseline;text-anchor:start;white-space:normal;shape-padding:0;clip-rule:nonzero;display:inline;overflow:visible;visibility:visible;opacity:1;isolation:auto;mix-blend-mode:normal;color-interpolation:sRGB;color-interpolation-filters:linearRGB;solid-color:#000000;solid-opacity:1;vector-effect:none;fill:#c4c4c4;fill-opacity:1;fill-rule:nonzero;stroke:none;stroke-width:31.40746117;stroke-linecap:butt;stroke-linejoin:miter;stroke-miterlimit:4;stroke-dasharray:none;stroke-dashoffset:0;stroke-opacity:1;color-rendering:auto;image-rendering:auto;shape-rendering:auto;text-rendering:auto;enable-background:accumulate"
       d="m 267.2722,-540.0095 v 15.71114 402.23118 c -31.82107,22.874482 -51.59135,59.195515 -51.63798,98.771193 -2e-4,67.519205 55.08277,122.60228 122.60189,122.601995 67.51934,2.85e-4 122.60227,-55.08279 122.60216,-122.601995 v -0.02848 c -0.057,-39.42761 -19.69916,-75.604561 -51.33215,-98.493143 v -418.19118 z m 31.39433,31.42227 h 79.44523 v 402.98191 l 7.53567,4.58826 c 27.16419,16.532194 43.722,45.949708 43.76856,77.748978 -0.0157,50.531983 -40.64406,91.152108 -91.17988,91.151966 -50.53569,1.42e-4 -91.16463,-40.619983 -91.17975,-91.151966 0.037,-31.916159 16.70037,-61.440879 44.01881,-77.943608 l 7.59136,-4.58825 z"
       id="path5147"
       inkscape:connector-curvature="0" />
    <path
       style="color:#000000;font-style:normal;font-variant:normal;font-weight:normal;font-stretch:normal;font-size:medium;line-height:normal;font-family:sans-serif;font-variant-ligatures:normal;font-variant-position:normal;font-variant-caps:normal;font-variant-numeric:normal;font-variant-alternates:normal;font-feature-settings:normal;text-indent:0;text-align:start;text-decoration:none;text-decoration-line:none;text-decoration-style:solid;text-decoration-color:#000000;letter-spacing:normal;word-spacing:normal;text-transform:none;writing-mode:lr-tb;direction:ltr;text-orientation:mixed;dominant-baseline:auto;baseline-shift:baseline;text-anchor:start;white-space:normal;shape-padding:0;clip-rule:nonzero;display:inline;overflow:visible;visibility:visible;opacity:1;isolation:auto;mix-blend-mode:normal;color-interpolation:sRGB;color-interpolation-filters:linearRGB;solid-color:#000000;solid-opacity:1;vector-effect:none;fill:#a7a7a7;fill-opacity:1;fill-rule:nonzero;stroke:none;stroke-width:31.40746117;stroke-linecap:butt;stroke-linejoin:miter;stroke-miterlimit:4;stroke-dasharray:none;stroke-dashoffset:0;stroke-opacity:1;color-rendering:auto;image-rendering:auto;shape-rendering:auto;text-rendering:auto;enable-background:accumulate"
       d="m 267.27388,-540.01021 v 15.71526 402.22492 c -31.82108,22.874484 -51.59444,59.196372 -51.64104,98.77205 -2.2e-4,67.519205 55.08324,122.602707 122.60241,122.602422 18.78186,0 36.59154,-4.274319 52.52664,-11.885858 L 373.52094,60.855077 c -10.84196,4.524325 -22.75843,7.026244 -35.28569,7.026244 -50.53577,1.43e-4 -91.16416,-40.617989 -91.17931,-91.149973 0.037,-31.916158 16.70043,-61.440736 44.01888,-77.943468 l 7.59274,-4.59095 v -402.78402 z"
       id="path5149"
       inkscape:connector-curvature="0"
       sodipodi:nodetypes="ccccccccccccc" />
  </g>
</svg>
